<?xml version="1.0" encoding="UTF-8"?>
<svg id="Layer_2" data-name="Layer 2" xmlns="http://www.w3.org/2000/svg" viewBox="0 0 73.51 14.44">
  <defs>
    <style>
      .cls-1 {
        fill: #3d4e3b;
      }
    </style>
  </defs>
  <g id="Layer_1-2" data-name="Layer 1">
    <g>
      <g>
        <path class="cls-1" d="M4.75,4.77s-.86-.87-2.17-.87c-.87,0-1.68,.35-1.68,1.15,0,.69,.65,.96,1.69,1.41,1.64,.71,2.83,1.23,2.83,2.54,0,1.03-.83,1.92-2.83,1.92-1.82,0-2.58-.78-2.58-.78v-.59s.99,1.15,2.59,1.15c1.33,0,1.88-.69,1.88-1.26,0-.84-1.07-1.31-1.92-1.7C1.11,7.06,.11,6.48,.11,5.41c0-1.19,1.17-1.73,2.49-1.73s2.15,.56,2.15,.56v.52Z"/>
        <path class="cls-1" d="M7.33,7.07v.24c0,1.6,.49,3.38,2.35,3.38,1.54,0,2.2-1.26,2.23-1.33v.6s-.71,.95-2.34,.95c-2.16,0-3.4-1.69-3.4-3.6,0-2.02,1.31-3.63,3.21-3.63s2.95,1.49,3.05,3.39H7.33Zm0-.22h3.91c-.1-1.58-.47-2.94-1.87-2.94-1.3,0-1.95,1.24-2.04,2.94Z"/>
        <path class="cls-1" d="M17.28,4.41c-1.75,0-2.56,1.46-2.56,3.35v3.05h-1.11V3.82h1.11v2.48c.1-.56,.32-1.17,.74-1.7,.39-.49,.99-.92,1.82-.92v.73Z"/>
        <path class="cls-1" d="M18.64,7.07v.24c0,1.6,.49,3.38,2.35,3.38,1.54,0,2.2-1.26,2.23-1.33v.6s-.71,.95-2.34,.95c-2.16,0-3.4-1.69-3.4-3.6,0-2.02,1.31-3.63,3.21-3.63s2.95,1.49,3.05,3.39h-5.1Zm0-.22h3.91c-.1-1.58-.47-2.94-1.87-2.94-1.3,0-1.95,1.24-2.04,2.94Z"/>
        <path class="cls-1" d="M29.69,6.35c0-1.03-.02-2.44-1.39-2.44-1.67,0-2.27,2.11-2.27,3.75v3.14h-1.11V3.82h1.11v2.56c.14-.94,.59-2.7,2.45-2.7,1.44,0,2.32,1.06,2.32,2.66v4.45h-1.11V6.35Z"/>
        <path class="cls-1" d="M32.41,3.82h1.11v6.98h-1.11V3.82Z"/>
        <path class="cls-1" d="M34.72,3.82h1.19v-1.75l1.11-.8V3.82h2.02v.22h-2.02v4.37c0,.91,0,2.23,1.1,2.23,.33,0,.57-.09,.57-.09v.22s-.27,.09-.57,.09c-1.82,0-2.21-1.31-2.21-3.01v-3.82h-1.19v-.22Z"/>
        <path class="cls-1" d="M40.74,3.82l2.45,5.55,2.44-5.55h.25l-4.67,10.63h-.25l1.65-3.75-3.01-6.87h1.15Z"/>
        <path class="cls-1" d="M48.53,3.82h1.11v1.15c.42-.8,1.15-1.28,2.23-1.28,1.83,0,3.21,1.63,3.21,3.6s-1.38,3.63-3.21,3.63c-1.1,0-1.81-.49-2.23-1.28v4.81h-1.11V3.82Zm5.41,3.47c0-1.83-.64-3.38-2.17-3.38s-2.12,1.55-2.12,3.38,.6,3.4,2.12,3.4,2.17-1.58,2.17-3.4Z"/>
        <path class="cls-1" d="M60.19,9.53c-.26,.61-.87,1.38-2.26,1.38-1.26,0-2.23-.64-2.23-1.89,0-1.34,1.14-1.8,2.84-2.44,1.41-.53,1.42-.87,1.42-1.43,0-.62-.16-1.25-1.22-1.25-1.43,0-2.19,1.07-2.22,1.12v-.59s.76-.76,2.3-.76c2.23,0,2.31,1.59,2.31,2.23v2.89c0,1.7,.51,1.78,.71,1.78,.25,0,.42-.13,.42-.13v.17s-.15,.18-.57,.18c-.7,0-1.22-.49-1.49-1.27Zm-.19-3.79c-.18,.47-.49,.63-1.44,1.1-1.15,.57-1.7,1.07-1.7,2.2,0,.93,.47,1.65,1.36,1.65s1.61-.6,1.9-1.41c-.07-.3-.11-.64-.11-1v-1.96c0-.18,0-.41,0-.57Z"/>
        <path class="cls-1" d="M62.24,3.82h1.19v-1.75l1.11-.8V3.82h2.02v.22h-2.02v4.37c0,.91,0,2.23,1.1,2.23,.33,0,.57-.09,.57-.09v.22s-.27,.09-.57,.09c-1.82,0-2.21-1.31-2.21-3.01v-3.82h-1.19v-.22Z"/>
        <path class="cls-1" d="M72.39,6.35c0-1.03-.02-2.44-1.39-2.44-1.67,0-2.27,2.11-2.27,3.75v3.14h-1.11V0h1.11V6.38c.14-.94,.59-2.7,2.45-2.7,1.44,0,2.32,1.06,2.32,2.66v4.45h-1.11V6.35Z"/>
      </g>
      <polygon class="cls-1" points="32.2 1.87 32.78 2.67 33.47 2.18 33.81 1.49 33.17 .79 32.37 .44 32.09 1.32 32.2 1.87"/>
    </g>
  </g>
</svg>